<mxfile host="app.diagrams.net" modified="2021-04-19T06:35:42.075Z" agent="5.0 (Windows NT 10.0; Win64; x64) AppleWebKit/537.36 (KHTML, like Gecko) Chrome/89.0.4389.128 Safari/537.36" etag="RYSxLbBlgMMKpLE3QDUl" version="14.6.1" type="github">
  <diagram id="Fa187jRMULUoXosjQ6cr" name="Page-1">
    <mxGraphModel dx="1422" dy="762" grid="1" gridSize="10" guides="1" tooltips="1" connect="1" arrows="1" fold="1" page="1" pageScale="1" pageWidth="827" pageHeight="1169" math="0" shadow="0">
      <root>
        <mxCell id="0" />
        <mxCell id="1" parent="0" />
        <mxCell id="_ButGwuy-Tsn-mBMwNqR-1" value="F" style="rounded=0;whiteSpace=wrap;html=1;fillColor=#f5f5f5;strokeColor=#666666;fontColor=#333333;" vertex="1" parent="1">
          <mxGeometry x="310" y="240" width="120" height="60" as="geometry" />
        </mxCell>
        <mxCell id="_ButGwuy-Tsn-mBMwNqR-2" value="G" style="rounded=0;whiteSpace=wrap;html=1;fillColor=#f5f5f5;strokeColor=#666666;fontColor=#333333;" vertex="1" parent="1">
          <mxGeometry x="310" y="160" width="120" height="60" as="geometry" />
        </mxCell>
        <mxCell id="_ButGwuy-Tsn-mBMwNqR-3" value="feedwt" style="text;html=1;align=center;verticalAlign=middle;whiteSpace=wrap;rounded=0;fillColor=#d5e8d4;strokeColor=#82b366;gradientColor=#ffffff;" vertex="1" parent="1">
          <mxGeometry x="240" y="190" width="40" height="20" as="geometry" />
        </mxCell>
        <mxCell id="_ButGwuy-Tsn-mBMwNqR-6" value="case" style="text;html=1;align=center;verticalAlign=middle;whiteSpace=wrap;rounded=0;fillColor=#d5e8d4;strokeColor=#82b366;gradientColor=#ffffff;" vertex="1" parent="1">
          <mxGeometry x="240" y="170" width="40" height="20" as="geometry" />
        </mxCell>
        <mxCell id="_ButGwuy-Tsn-mBMwNqR-8" value="" style="endArrow=classic;html=1;exitX=1;exitY=1;exitDx=0;exitDy=0;" edge="1" parent="1" source="_ButGwuy-Tsn-mBMwNqR-6" target="_ButGwuy-Tsn-mBMwNqR-2">
          <mxGeometry width="50" height="50" relative="1" as="geometry">
            <mxPoint x="390" y="420" as="sourcePoint" />
            <mxPoint x="440" y="370" as="targetPoint" />
          </mxGeometry>
        </mxCell>
        <mxCell id="_ButGwuy-Tsn-mBMwNqR-9" value="op" style="text;html=1;align=center;verticalAlign=middle;whiteSpace=wrap;rounded=0;fillColor=#f8cecc;strokeColor=#b85450;gradientColor=#ffffff;" vertex="1" parent="1">
          <mxGeometry x="460" y="180" width="40" height="20" as="geometry" />
        </mxCell>
        <mxCell id="_ButGwuy-Tsn-mBMwNqR-10" value="" style="endArrow=classic;html=1;exitX=1;exitY=0.5;exitDx=0;exitDy=0;entryX=0;entryY=0.5;entryDx=0;entryDy=0;" edge="1" parent="1" source="_ButGwuy-Tsn-mBMwNqR-2" target="_ButGwuy-Tsn-mBMwNqR-9">
          <mxGeometry width="50" height="50" relative="1" as="geometry">
            <mxPoint x="390" y="420" as="sourcePoint" />
            <mxPoint x="440" y="370" as="targetPoint" />
          </mxGeometry>
        </mxCell>
        <mxCell id="_ButGwuy-Tsn-mBMwNqR-12" value="case" style="text;html=1;strokeColor=#82b366;fillColor=#d5e8d4;align=center;verticalAlign=middle;whiteSpace=wrap;rounded=0;gradientColor=#ffffff;" vertex="1" parent="1">
          <mxGeometry x="240" y="240" width="40" height="20" as="geometry" />
        </mxCell>
        <mxCell id="_ButGwuy-Tsn-mBMwNqR-13" value="feedwt" style="text;html=1;strokeColor=#82b366;fillColor=#d5e8d4;align=center;verticalAlign=middle;whiteSpace=wrap;rounded=0;gradientColor=#ffffff;" vertex="1" parent="1">
          <mxGeometry x="240" y="260" width="40" height="20" as="geometry" />
        </mxCell>
        <mxCell id="_ButGwuy-Tsn-mBMwNqR-14" value="op" style="text;html=1;strokeColor=#82b366;fillColor=#d5e8d4;align=center;verticalAlign=middle;whiteSpace=wrap;rounded=0;gradientColor=#ffffff;" vertex="1" parent="1">
          <mxGeometry x="240" y="280" width="40" height="20" as="geometry" />
        </mxCell>
        <mxCell id="_ButGwuy-Tsn-mBMwNqR-16" value="outwt" style="text;html=1;strokeColor=#b85450;fillColor=#f8cecc;align=center;verticalAlign=middle;whiteSpace=wrap;rounded=0;gradientColor=#ffffff;" vertex="1" parent="1">
          <mxGeometry x="460" y="260" width="40" height="20" as="geometry" />
        </mxCell>
        <mxCell id="_ButGwuy-Tsn-mBMwNqR-17" value="" style="endArrow=classic;html=1;exitX=1;exitY=0.5;exitDx=0;exitDy=0;entryX=0;entryY=0.5;entryDx=0;entryDy=0;" edge="1" parent="1" source="_ButGwuy-Tsn-mBMwNqR-1" target="_ButGwuy-Tsn-mBMwNqR-16">
          <mxGeometry width="50" height="50" relative="1" as="geometry">
            <mxPoint x="390" y="420" as="sourcePoint" />
            <mxPoint x="440" y="370" as="targetPoint" />
          </mxGeometry>
        </mxCell>
        <mxCell id="_ButGwuy-Tsn-mBMwNqR-18" value="" style="endArrow=classic;html=1;exitX=1;exitY=0.5;exitDx=0;exitDy=0;" edge="1" parent="1" source="_ButGwuy-Tsn-mBMwNqR-13" target="_ButGwuy-Tsn-mBMwNqR-1">
          <mxGeometry width="50" height="50" relative="1" as="geometry">
            <mxPoint x="390" y="420" as="sourcePoint" />
            <mxPoint x="440" y="370" as="targetPoint" />
          </mxGeometry>
        </mxCell>
        <mxCell id="_ButGwuy-Tsn-mBMwNqR-19" value="Supervised learning by&amp;nbsp;gradient descent" style="text;html=1;strokeColor=#d6b656;fillColor=#fff2cc;align=center;verticalAlign=middle;whiteSpace=wrap;rounded=0;" vertex="1" parent="1">
          <mxGeometry x="200" y="130" width="350" height="20" as="geometry" />
        </mxCell>
        <mxCell id="_ButGwuy-Tsn-mBMwNqR-20" value="" style="rounded=0;whiteSpace=wrap;html=1;strokeColor=#000000;gradientColor=#ffffff;fillColor=none;" vertex="1" parent="1">
          <mxGeometry x="190" y="110" width="370" height="220" as="geometry" />
        </mxCell>
        <mxCell id="_ButGwuy-Tsn-mBMwNqR-21" value="train" style="text;html=1;strokeColor=#6c8ebf;fillColor=#dae8fc;align=center;verticalAlign=middle;whiteSpace=wrap;rounded=0;" vertex="1" parent="1">
          <mxGeometry x="150" y="110" width="40" height="20" as="geometry" />
        </mxCell>
        <mxCell id="_ButGwuy-Tsn-mBMwNqR-24" value="F" style="rounded=0;whiteSpace=wrap;html=1;fillColor=#f5f5f5;strokeColor=#666666;fontColor=#333333;" vertex="1" parent="1">
          <mxGeometry x="310" y="240" width="120" height="60" as="geometry" />
        </mxCell>
        <mxCell id="_ButGwuy-Tsn-mBMwNqR-25" value="G" style="rounded=0;whiteSpace=wrap;html=1;fillColor=#f5f5f5;strokeColor=#666666;fontColor=#333333;" vertex="1" parent="1">
          <mxGeometry x="310" y="160" width="120" height="60" as="geometry" />
        </mxCell>
        <mxCell id="_ButGwuy-Tsn-mBMwNqR-26" value="feedwt" style="text;html=1;align=center;verticalAlign=middle;whiteSpace=wrap;rounded=0;fillColor=#d5e8d4;strokeColor=#82b366;gradientColor=#ffffff;" vertex="1" parent="1">
          <mxGeometry x="240" y="190" width="40" height="20" as="geometry" />
        </mxCell>
        <mxCell id="_ButGwuy-Tsn-mBMwNqR-27" value="case" style="text;html=1;align=center;verticalAlign=middle;whiteSpace=wrap;rounded=0;fillColor=#d5e8d4;strokeColor=#82b366;gradientColor=#ffffff;" vertex="1" parent="1">
          <mxGeometry x="240" y="170" width="40" height="20" as="geometry" />
        </mxCell>
        <mxCell id="_ButGwuy-Tsn-mBMwNqR-28" value="" style="endArrow=classic;html=1;exitX=1;exitY=1;exitDx=0;exitDy=0;" edge="1" parent="1" source="_ButGwuy-Tsn-mBMwNqR-27" target="_ButGwuy-Tsn-mBMwNqR-25">
          <mxGeometry width="50" height="50" relative="1" as="geometry">
            <mxPoint x="390" y="420" as="sourcePoint" />
            <mxPoint x="440" y="370" as="targetPoint" />
          </mxGeometry>
        </mxCell>
        <mxCell id="_ButGwuy-Tsn-mBMwNqR-29" value="op" style="text;html=1;align=center;verticalAlign=middle;whiteSpace=wrap;rounded=0;fillColor=#f8cecc;strokeColor=#b85450;gradientColor=#ffffff;" vertex="1" parent="1">
          <mxGeometry x="460" y="180" width="40" height="20" as="geometry" />
        </mxCell>
        <mxCell id="_ButGwuy-Tsn-mBMwNqR-30" value="" style="endArrow=classic;html=1;exitX=1;exitY=0.5;exitDx=0;exitDy=0;entryX=0;entryY=0.5;entryDx=0;entryDy=0;" edge="1" parent="1" source="_ButGwuy-Tsn-mBMwNqR-25" target="_ButGwuy-Tsn-mBMwNqR-29">
          <mxGeometry width="50" height="50" relative="1" as="geometry">
            <mxPoint x="390" y="420" as="sourcePoint" />
            <mxPoint x="440" y="370" as="targetPoint" />
          </mxGeometry>
        </mxCell>
        <mxCell id="_ButGwuy-Tsn-mBMwNqR-31" value="case" style="text;html=1;strokeColor=#82b366;fillColor=#d5e8d4;align=center;verticalAlign=middle;whiteSpace=wrap;rounded=0;gradientColor=#ffffff;" vertex="1" parent="1">
          <mxGeometry x="240" y="240" width="40" height="20" as="geometry" />
        </mxCell>
        <mxCell id="_ButGwuy-Tsn-mBMwNqR-32" value="feedwt" style="text;html=1;strokeColor=#82b366;fillColor=#d5e8d4;align=center;verticalAlign=middle;whiteSpace=wrap;rounded=0;gradientColor=#ffffff;" vertex="1" parent="1">
          <mxGeometry x="240" y="260" width="40" height="20" as="geometry" />
        </mxCell>
        <mxCell id="_ButGwuy-Tsn-mBMwNqR-33" value="op" style="text;html=1;strokeColor=#82b366;fillColor=#d5e8d4;align=center;verticalAlign=middle;whiteSpace=wrap;rounded=0;gradientColor=#ffffff;" vertex="1" parent="1">
          <mxGeometry x="240" y="280" width="40" height="20" as="geometry" />
        </mxCell>
        <mxCell id="_ButGwuy-Tsn-mBMwNqR-34" value="outwt" style="text;html=1;strokeColor=#b85450;fillColor=#f8cecc;align=center;verticalAlign=middle;whiteSpace=wrap;rounded=0;gradientColor=#ffffff;" vertex="1" parent="1">
          <mxGeometry x="460" y="260" width="40" height="20" as="geometry" />
        </mxCell>
        <mxCell id="_ButGwuy-Tsn-mBMwNqR-35" value="" style="endArrow=classic;html=1;exitX=1;exitY=0.5;exitDx=0;exitDy=0;entryX=0;entryY=0.5;entryDx=0;entryDy=0;" edge="1" parent="1" source="_ButGwuy-Tsn-mBMwNqR-24" target="_ButGwuy-Tsn-mBMwNqR-34">
          <mxGeometry width="50" height="50" relative="1" as="geometry">
            <mxPoint x="390" y="420" as="sourcePoint" />
            <mxPoint x="440" y="370" as="targetPoint" />
          </mxGeometry>
        </mxCell>
        <mxCell id="_ButGwuy-Tsn-mBMwNqR-36" value="" style="endArrow=classic;html=1;exitX=1;exitY=0.5;exitDx=0;exitDy=0;" edge="1" parent="1" source="_ButGwuy-Tsn-mBMwNqR-32" target="_ButGwuy-Tsn-mBMwNqR-24">
          <mxGeometry width="50" height="50" relative="1" as="geometry">
            <mxPoint x="390" y="420" as="sourcePoint" />
            <mxPoint x="440" y="370" as="targetPoint" />
          </mxGeometry>
        </mxCell>
        <mxCell id="_ButGwuy-Tsn-mBMwNqR-37" value="Supervised learning by&amp;nbsp;gradient descent" style="text;html=1;strokeColor=#d6b656;fillColor=#fff2cc;align=center;verticalAlign=middle;whiteSpace=wrap;rounded=0;" vertex="1" parent="1">
          <mxGeometry x="200" y="130" width="350" height="20" as="geometry" />
        </mxCell>
        <mxCell id="_ButGwuy-Tsn-mBMwNqR-38" value="" style="rounded=0;whiteSpace=wrap;html=1;strokeColor=#000000;gradientColor=#ffffff;fillColor=none;" vertex="1" parent="1">
          <mxGeometry x="190" y="110" width="370" height="220" as="geometry" />
        </mxCell>
        <mxCell id="_ButGwuy-Tsn-mBMwNqR-39" value="training" style="text;html=1;strokeColor=#6c8ebf;fillColor=#dae8fc;align=center;verticalAlign=middle;whiteSpace=wrap;rounded=0;" vertex="1" parent="1">
          <mxGeometry x="100" y="110" width="90" height="20" as="geometry" />
        </mxCell>
        <mxCell id="_ButGwuy-Tsn-mBMwNqR-40" value="F" style="rounded=0;whiteSpace=wrap;html=1;fillColor=#f5f5f5;strokeColor=#666666;fontColor=#333333;" vertex="1" parent="1">
          <mxGeometry x="310" y="495" width="120" height="60" as="geometry" />
        </mxCell>
        <mxCell id="_ButGwuy-Tsn-mBMwNqR-41" value="G" style="rounded=0;whiteSpace=wrap;html=1;fillColor=#f5f5f5;strokeColor=#666666;fontColor=#333333;" vertex="1" parent="1">
          <mxGeometry x="310" y="415" width="120" height="60" as="geometry" />
        </mxCell>
        <mxCell id="_ButGwuy-Tsn-mBMwNqR-42" value="feedwt" style="text;html=1;align=center;verticalAlign=middle;whiteSpace=wrap;rounded=0;fillColor=#d5e8d4;strokeColor=#82b366;gradientColor=#ffffff;" vertex="1" parent="1">
          <mxGeometry x="240" y="445" width="40" height="20" as="geometry" />
        </mxCell>
        <mxCell id="_ButGwuy-Tsn-mBMwNqR-43" value="case" style="text;html=1;align=center;verticalAlign=middle;whiteSpace=wrap;rounded=0;fillColor=#d5e8d4;strokeColor=#82b366;gradientColor=#ffffff;" vertex="1" parent="1">
          <mxGeometry x="240" y="425" width="40" height="20" as="geometry" />
        </mxCell>
        <mxCell id="_ButGwuy-Tsn-mBMwNqR-44" value="" style="endArrow=classic;html=1;exitX=1;exitY=1;exitDx=0;exitDy=0;" edge="1" parent="1" source="_ButGwuy-Tsn-mBMwNqR-43" target="_ButGwuy-Tsn-mBMwNqR-41">
          <mxGeometry width="50" height="50" relative="1" as="geometry">
            <mxPoint x="390" y="675" as="sourcePoint" />
            <mxPoint x="440" y="625" as="targetPoint" />
          </mxGeometry>
        </mxCell>
        <mxCell id="_ButGwuy-Tsn-mBMwNqR-45" value="op" style="text;html=1;align=center;verticalAlign=middle;whiteSpace=wrap;rounded=0;fillColor=#f8cecc;strokeColor=#b85450;gradientColor=#ffffff;" vertex="1" parent="1">
          <mxGeometry x="460" y="435" width="40" height="20" as="geometry" />
        </mxCell>
        <mxCell id="_ButGwuy-Tsn-mBMwNqR-46" value="" style="endArrow=classic;html=1;exitX=1;exitY=0.5;exitDx=0;exitDy=0;entryX=0;entryY=0.5;entryDx=0;entryDy=0;" edge="1" parent="1" source="_ButGwuy-Tsn-mBMwNqR-41" target="_ButGwuy-Tsn-mBMwNqR-45">
          <mxGeometry width="50" height="50" relative="1" as="geometry">
            <mxPoint x="390" y="675" as="sourcePoint" />
            <mxPoint x="440" y="625" as="targetPoint" />
          </mxGeometry>
        </mxCell>
        <mxCell id="_ButGwuy-Tsn-mBMwNqR-47" value="case" style="text;html=1;strokeColor=#82b366;fillColor=#d5e8d4;align=center;verticalAlign=middle;whiteSpace=wrap;rounded=0;gradientColor=#ffffff;" vertex="1" parent="1">
          <mxGeometry x="240" y="495" width="40" height="20" as="geometry" />
        </mxCell>
        <mxCell id="_ButGwuy-Tsn-mBMwNqR-48" value="feedwt" style="text;html=1;strokeColor=#82b366;fillColor=#d5e8d4;align=center;verticalAlign=middle;whiteSpace=wrap;rounded=0;gradientColor=#ffffff;" vertex="1" parent="1">
          <mxGeometry x="240" y="515" width="40" height="20" as="geometry" />
        </mxCell>
        <mxCell id="_ButGwuy-Tsn-mBMwNqR-49" value="op" style="text;html=1;strokeColor=#82b366;fillColor=#d5e8d4;align=center;verticalAlign=middle;whiteSpace=wrap;rounded=0;gradientColor=#ffffff;" vertex="1" parent="1">
          <mxGeometry x="240" y="535" width="40" height="20" as="geometry" />
        </mxCell>
        <mxCell id="_ButGwuy-Tsn-mBMwNqR-50" value="outwt" style="text;html=1;strokeColor=#b85450;fillColor=#f8cecc;align=center;verticalAlign=middle;whiteSpace=wrap;rounded=0;gradientColor=#ffffff;" vertex="1" parent="1">
          <mxGeometry x="460" y="515" width="40" height="20" as="geometry" />
        </mxCell>
        <mxCell id="_ButGwuy-Tsn-mBMwNqR-51" value="" style="endArrow=classic;html=1;exitX=1;exitY=0.5;exitDx=0;exitDy=0;entryX=0;entryY=0.5;entryDx=0;entryDy=0;" edge="1" parent="1" source="_ButGwuy-Tsn-mBMwNqR-40" target="_ButGwuy-Tsn-mBMwNqR-50">
          <mxGeometry width="50" height="50" relative="1" as="geometry">
            <mxPoint x="390" y="675" as="sourcePoint" />
            <mxPoint x="440" y="625" as="targetPoint" />
          </mxGeometry>
        </mxCell>
        <mxCell id="_ButGwuy-Tsn-mBMwNqR-52" value="" style="endArrow=classic;html=1;exitX=1;exitY=0.5;exitDx=0;exitDy=0;" edge="1" parent="1" source="_ButGwuy-Tsn-mBMwNqR-48" target="_ButGwuy-Tsn-mBMwNqR-40">
          <mxGeometry width="50" height="50" relative="1" as="geometry">
            <mxPoint x="390" y="675" as="sourcePoint" />
            <mxPoint x="440" y="625" as="targetPoint" />
          </mxGeometry>
        </mxCell>
        <mxCell id="_ButGwuy-Tsn-mBMwNqR-55" value="train" style="text;html=1;strokeColor=#6c8ebf;fillColor=#dae8fc;align=center;verticalAlign=middle;whiteSpace=wrap;rounded=0;" vertex="1" parent="1">
          <mxGeometry x="150" y="365" width="40" height="20" as="geometry" />
        </mxCell>
        <mxCell id="_ButGwuy-Tsn-mBMwNqR-56" value="F" style="rounded=0;whiteSpace=wrap;html=1;fillColor=#f5f5f5;strokeColor=#666666;fontColor=#333333;" vertex="1" parent="1">
          <mxGeometry x="310" y="495" width="120" height="60" as="geometry" />
        </mxCell>
        <mxCell id="_ButGwuy-Tsn-mBMwNqR-57" value="G" style="rounded=0;whiteSpace=wrap;html=1;fillColor=#f5f5f5;strokeColor=#666666;fontColor=#333333;" vertex="1" parent="1">
          <mxGeometry x="310" y="415" width="120" height="60" as="geometry" />
        </mxCell>
        <mxCell id="_ButGwuy-Tsn-mBMwNqR-58" value="feedwt" style="text;html=1;align=center;verticalAlign=middle;whiteSpace=wrap;rounded=0;fillColor=#d5e8d4;strokeColor=#82b366;gradientColor=#ffffff;" vertex="1" parent="1">
          <mxGeometry x="240" y="445" width="40" height="20" as="geometry" />
        </mxCell>
        <mxCell id="_ButGwuy-Tsn-mBMwNqR-59" value="case" style="text;html=1;align=center;verticalAlign=middle;whiteSpace=wrap;rounded=0;fillColor=#d5e8d4;strokeColor=#82b366;gradientColor=#ffffff;" vertex="1" parent="1">
          <mxGeometry x="240" y="425" width="40" height="20" as="geometry" />
        </mxCell>
        <mxCell id="_ButGwuy-Tsn-mBMwNqR-60" value="" style="endArrow=classic;html=1;exitX=1;exitY=1;exitDx=0;exitDy=0;" edge="1" parent="1" source="_ButGwuy-Tsn-mBMwNqR-59" target="_ButGwuy-Tsn-mBMwNqR-57">
          <mxGeometry width="50" height="50" relative="1" as="geometry">
            <mxPoint x="390" y="675" as="sourcePoint" />
            <mxPoint x="440" y="625" as="targetPoint" />
          </mxGeometry>
        </mxCell>
        <mxCell id="_ButGwuy-Tsn-mBMwNqR-61" value="op" style="text;html=1;align=center;verticalAlign=middle;whiteSpace=wrap;rounded=0;fillColor=#f8cecc;strokeColor=#b85450;gradientColor=#ffffff;" vertex="1" parent="1">
          <mxGeometry x="460" y="435" width="40" height="20" as="geometry" />
        </mxCell>
        <mxCell id="_ButGwuy-Tsn-mBMwNqR-62" value="" style="endArrow=classic;html=1;exitX=1;exitY=0.5;exitDx=0;exitDy=0;entryX=0;entryY=0.5;entryDx=0;entryDy=0;" edge="1" parent="1" source="_ButGwuy-Tsn-mBMwNqR-57" target="_ButGwuy-Tsn-mBMwNqR-61">
          <mxGeometry width="50" height="50" relative="1" as="geometry">
            <mxPoint x="390" y="675" as="sourcePoint" />
            <mxPoint x="440" y="625" as="targetPoint" />
          </mxGeometry>
        </mxCell>
        <mxCell id="_ButGwuy-Tsn-mBMwNqR-63" value="case" style="text;html=1;strokeColor=#82b366;fillColor=#d5e8d4;align=center;verticalAlign=middle;whiteSpace=wrap;rounded=0;gradientColor=#ffffff;" vertex="1" parent="1">
          <mxGeometry x="240" y="495" width="40" height="20" as="geometry" />
        </mxCell>
        <mxCell id="_ButGwuy-Tsn-mBMwNqR-64" value="feedwt" style="text;html=1;strokeColor=#82b366;fillColor=#d5e8d4;align=center;verticalAlign=middle;whiteSpace=wrap;rounded=0;gradientColor=#ffffff;" vertex="1" parent="1">
          <mxGeometry x="240" y="515" width="40" height="20" as="geometry" />
        </mxCell>
        <mxCell id="_ButGwuy-Tsn-mBMwNqR-65" value="op" style="text;html=1;strokeColor=#82b366;fillColor=#d5e8d4;align=center;verticalAlign=middle;whiteSpace=wrap;rounded=0;gradientColor=#ffffff;" vertex="1" parent="1">
          <mxGeometry x="240" y="535" width="40" height="20" as="geometry" />
        </mxCell>
        <mxCell id="_ButGwuy-Tsn-mBMwNqR-66" value="outwt" style="text;html=1;strokeColor=#b85450;fillColor=#f8cecc;align=center;verticalAlign=middle;whiteSpace=wrap;rounded=0;gradientColor=#ffffff;" vertex="1" parent="1">
          <mxGeometry x="460" y="515" width="40" height="20" as="geometry" />
        </mxCell>
        <mxCell id="_ButGwuy-Tsn-mBMwNqR-67" value="" style="endArrow=classic;html=1;exitX=1;exitY=0.5;exitDx=0;exitDy=0;entryX=0;entryY=0.5;entryDx=0;entryDy=0;" edge="1" parent="1" source="_ButGwuy-Tsn-mBMwNqR-56" target="_ButGwuy-Tsn-mBMwNqR-66">
          <mxGeometry width="50" height="50" relative="1" as="geometry">
            <mxPoint x="390" y="675" as="sourcePoint" />
            <mxPoint x="440" y="625" as="targetPoint" />
          </mxGeometry>
        </mxCell>
        <mxCell id="_ButGwuy-Tsn-mBMwNqR-68" value="" style="endArrow=classic;html=1;exitX=1;exitY=0.5;exitDx=0;exitDy=0;" edge="1" parent="1" source="_ButGwuy-Tsn-mBMwNqR-64" target="_ButGwuy-Tsn-mBMwNqR-56">
          <mxGeometry width="50" height="50" relative="1" as="geometry">
            <mxPoint x="390" y="675" as="sourcePoint" />
            <mxPoint x="440" y="625" as="targetPoint" />
          </mxGeometry>
        </mxCell>
        <mxCell id="_ButGwuy-Tsn-mBMwNqR-71" value="Optimal search" style="text;html=1;strokeColor=#6c8ebf;fillColor=#dae8fc;align=center;verticalAlign=middle;whiteSpace=wrap;rounded=0;" vertex="1" parent="1">
          <mxGeometry x="100" y="365" width="90" height="20" as="geometry" />
        </mxCell>
        <mxCell id="_ButGwuy-Tsn-mBMwNqR-72" value="write user&amp;nbsp;expect as a&amp;nbsp;objective function" style="text;html=1;strokeColor=#d6b656;fillColor=#fff2cc;align=center;verticalAlign=middle;whiteSpace=wrap;rounded=0;" vertex="1" parent="1">
          <mxGeometry x="520" y="490" width="240" height="20" as="geometry" />
        </mxCell>
        <mxCell id="_ButGwuy-Tsn-mBMwNqR-73" value="" style="endArrow=classic;html=1;entryX=1;entryY=0;entryDx=0;entryDy=0;exitX=0;exitY=0.5;exitDx=0;exitDy=0;" edge="1" parent="1" source="_ButGwuy-Tsn-mBMwNqR-72" target="_ButGwuy-Tsn-mBMwNqR-66">
          <mxGeometry width="50" height="50" relative="1" as="geometry">
            <mxPoint x="390" y="370" as="sourcePoint" />
            <mxPoint x="440" y="320" as="targetPoint" />
          </mxGeometry>
        </mxCell>
        <mxCell id="_ButGwuy-Tsn-mBMwNqR-74" value="" style="endArrow=classic;html=1;entryX=1;entryY=1;entryDx=0;entryDy=0;" edge="1" parent="1" target="_ButGwuy-Tsn-mBMwNqR-65">
          <mxGeometry width="50" height="50" relative="1" as="geometry">
            <mxPoint x="300" y="580" as="sourcePoint" />
            <mxPoint x="440" y="320" as="targetPoint" />
          </mxGeometry>
        </mxCell>
        <mxCell id="_ButGwuy-Tsn-mBMwNqR-75" value="given objective function use gradient free optimization methods search&amp;nbsp;optimal op&amp;nbsp;" style="text;html=1;strokeColor=#d6b656;fillColor=#fff2cc;align=center;verticalAlign=middle;whiteSpace=wrap;rounded=0;" vertex="1" parent="1">
          <mxGeometry x="300" y="575" width="460" height="20" as="geometry" />
        </mxCell>
        <mxCell id="_ButGwuy-Tsn-mBMwNqR-76" value="" style="rounded=0;whiteSpace=wrap;html=1;strokeColor=#000000;fillColor=none;gradientColor=#ffffff;" vertex="1" parent="1">
          <mxGeometry x="190" y="365" width="570" height="255" as="geometry" />
        </mxCell>
        <mxCell id="_ButGwuy-Tsn-mBMwNqR-78" value="&lt;span lang=&quot;en&quot; style=&quot;color: rgb(32 , 33 , 34) ; font-family: sans-serif ; font-size: 15.008px ; background-color: rgb(255 , 255 , 255)&quot;&gt;&lt;b&gt;Delta&lt;/b&gt;&lt;/span&gt;&lt;span style=&quot;color: rgb(32 , 33 , 34) ; font-family: sans-serif ; font-size: 15.008px ; background-color: rgb(255 , 255 , 255)&quot;&gt;Δ =&amp;nbsp;&lt;/span&gt;" style="text;html=1;align=center;verticalAlign=middle;whiteSpace=wrap;rounded=0;" vertex="1" parent="1">
          <mxGeometry x="210" y="640" width="120" height="20" as="geometry" />
        </mxCell>
        <mxCell id="_ButGwuy-Tsn-mBMwNqR-79" value="optimal_op" style="text;html=1;strokeColor=#82b366;fillColor=#d5e8d4;align=center;verticalAlign=middle;whiteSpace=wrap;rounded=0;gradientColor=#ffffff;" vertex="1" parent="1">
          <mxGeometry x="310" y="640" width="70" height="20" as="geometry" />
        </mxCell>
        <mxCell id="_ButGwuy-Tsn-mBMwNqR-80" value="&lt;b&gt;-&lt;/b&gt;" style="text;html=1;strokeColor=none;fillColor=none;align=center;verticalAlign=middle;whiteSpace=wrap;rounded=0;fontColor=#000000;" vertex="1" parent="1">
          <mxGeometry x="380" y="640" width="30" height="20" as="geometry" />
        </mxCell>
        <mxCell id="_ButGwuy-Tsn-mBMwNqR-81" value="op" style="text;html=1;strokeColor=#b85450;fillColor=#f8cecc;align=center;verticalAlign=middle;whiteSpace=wrap;rounded=0;gradientColor=#ffffff;" vertex="1" parent="1">
          <mxGeometry x="410" y="640" width="40" height="20" as="geometry" />
        </mxCell>
        <mxCell id="_ButGwuy-Tsn-mBMwNqR-83" value="after 300&amp;nbsp;iteration op gradually become optimal_op" style="text;html=1;strokeColor=#d6b656;fillColor=#fff2cc;align=center;verticalAlign=middle;whiteSpace=wrap;rounded=0;" vertex="1" parent="1">
          <mxGeometry x="300" y="595" width="310" height="20" as="geometry" />
        </mxCell>
        <mxCell id="_ButGwuy-Tsn-mBMwNqR-84" style="edgeStyle=orthogonalEdgeStyle;rounded=0;orthogonalLoop=1;jettySize=auto;html=1;exitX=0.5;exitY=1;exitDx=0;exitDy=0;fontColor=#000000;" edge="1" parent="1" source="_ButGwuy-Tsn-mBMwNqR-76" target="_ButGwuy-Tsn-mBMwNqR-76">
          <mxGeometry relative="1" as="geometry" />
        </mxCell>
        <mxCell id="_ButGwuy-Tsn-mBMwNqR-85" value="finally" style="text;html=1;strokeColor=#6c8ebf;fillColor=#dae8fc;align=center;verticalAlign=middle;whiteSpace=wrap;rounded=0;" vertex="1" parent="1">
          <mxGeometry x="100" y="640" width="90" height="20" as="geometry" />
        </mxCell>
        <mxCell id="_ButGwuy-Tsn-mBMwNqR-86" value="" style="rounded=0;whiteSpace=wrap;html=1;fontColor=#000000;strokeColor=#000000;fillColor=none;gradientColor=#ffffff;" vertex="1" parent="1">
          <mxGeometry x="190" y="640" width="290" height="20" as="geometry" />
        </mxCell>
      </root>
    </mxGraphModel>
  </diagram>
</mxfile>
